<svg xmlns="http://www.w3.org/2000/svg" xmlns:xlink="http://www.w3.org/1999/xlink" width="80" zoomAndPan="magnify" viewBox="0 0 60 60" height="80" preserveAspectRatio="xMidYMid meet" version="1.0"><defs><filter x="0%" y="0%" width="100%" height="100%" id="id1"><feColorMatrix values="0 0 0 0 1 0 0 0 0 1 0 0 0 0 1 0 0 0 1 0" color-interpolation-filters="sRGB"/></filter><g/><mask id="id2"><g filter="url(#id1)"><rect x="-6" width="72" fill="rgb(0%, 0%, 0%)" y="-6" height="72" fill-opacity="0.6078"/></g></mask><clipPath id="id3"><path d="M 0.71875 1 L 12 1 L 12 24 L 0.71875 24 Z M 0.71875 1 " clip-rule="nonzero"/></clipPath><clipPath id="id4"><rect x="0" width="18" y="0" height="24"/></clipPath></defs><rect x="-6" width="72" fill="rgb(100%, 100%, 100%)" y="-6" height="72" fill-opacity="1"/><rect x="-6" width="72" fill="rgb(14.118958%, 14.118958%, 14.118958%)" y="-6" height="72" fill-opacity="1"/><rect x="-6" width="72" fill="rgb(100%, 100%, 100%)" y="-6" height="72" fill-opacity="1"/><rect x="-6" width="72" fill="rgb(14.118958%, 14.118958%, 14.118958%)" y="-6" height="72" fill-opacity="1"/><g mask="url(#id2)"><g transform="matrix(1, 0, 0, 1, 12, 18)"><g clip-path="url(#id4)"><g clip-path="url(#id3)"><g fill="rgb(100%, 74.119568%, 34.899902%)" fill-opacity="1"><g transform="translate(4.647021, 17.700001)"><g><path d="M -0.0703125 6.230469 C 3.09375 6.230469 5.792969 4.246094 5.792969 0.507812 L 5.792969 -9.832031 C 5.792969 -13.25 6.164062 -15.300781 6.648438 -15.878906 L 6.648438 -16.15625 L 0.554688 -16.15625 L 0.554688 -15.878906 C 1.039062 -15.300781 1.429688 -13.25 1.429688 -9.832031 L 1.429688 2.90625 C 1.429688 4.640625 0.714844 5.746094 -0.414062 5.746094 C -1.40625 5.746094 -2.125 5.101562 -2.125 4.039062 C -2.125 3.140625 -1.546875 2.5625 -0.878906 2.5625 C -0.300781 2.5625 0.230469 2.976562 0.207031 3.667969 L 0.414062 3.667969 C 0.484375 3.554688 0.601562 3.253906 0.601562 2.929688 C 0.601562 1.847656 -0.230469 0.945312 -1.363281 0.945312 C -2.5625 0.945312 -3.761719 1.847656 -3.761719 3.347656 C -3.761719 5.214844 -2.285156 6.230469 -0.0703125 6.230469 Z M -0.0703125 6.230469 "/></g></g></g></g></g></g></g><g fill="rgb(100%, 100%, 100%)" fill-opacity="1"><g transform="translate(12.955436, 33.193335)"><g><path d="M 18.40625 0.28125 C 18.414062 0.28125 18.425781 0.28125 18.4375 0.28125 C 18.46875 0.28125 18.492188 0.28125 18.515625 0.28125 C 18.546875 0.289062 18.570312 0.304688 18.59375 0.328125 C 18.601562 0.335938 18.609375 0.347656 18.609375 0.359375 C 18.617188 0.367188 18.625 0.378906 18.625 0.390625 C 18.613281 0.398438 18.601562 0.410156 18.59375 0.421875 C 18.59375 0.429688 18.585938 0.4375 18.578125 0.4375 C 18.546875 0.445312 18.515625 0.453125 18.484375 0.453125 C 18.460938 0.453125 18.445312 0.453125 18.4375 0.453125 C 18.238281 0.441406 18.035156 0.425781 17.828125 0.40625 C 17.460938 0.375 17.097656 0.347656 16.734375 0.328125 C 15.234375 0.234375 13.75 0.179688 12.28125 0.171875 C 10.8125 0.160156 9.320312 0.179688 7.8125 0.234375 C 7.65625 0.234375 7.492188 0.242188 7.328125 0.265625 C 7.179688 0.273438 7.03125 0.28125 6.875 0.28125 C 6.726562 0.289062 6.613281 0.359375 6.53125 0.484375 C 6.164062 0.972656 5.765625 1.441406 5.328125 1.890625 C 5.015625 2.203125 4.691406 2.484375 4.359375 2.734375 C 4.023438 2.984375 3.675781 3.179688 3.3125 3.328125 C 2.945312 3.472656 2.5625 3.546875 2.15625 3.546875 C 1.757812 3.546875 1.34375 3.445312 0.90625 3.25 C 0.707031 3.164062 0.53125 3.039062 0.375 2.875 C 0.125 2.59375 0.0976562 2.285156 0.296875 1.953125 C 0.429688 1.742188 0.609375 1.566406 0.828125 1.421875 C 1.160156 1.203125 1.546875 1.015625 1.984375 0.859375 C 2.421875 0.710938 2.882812 0.59375 3.375 0.5 C 3.863281 0.40625 4.34375 0.328125 4.8125 0.265625 C 5.289062 0.210938 5.726562 0.175781 6.125 0.15625 C 6.28125 0.132812 6.398438 0.0625 6.484375 -0.0625 C 6.804688 -0.519531 7.148438 -1.0625 7.515625 -1.6875 C 7.878906 -2.3125 8.226562 -2.96875 8.5625 -3.65625 C 8.90625 -4.351562 9.195312 -5.03125 9.4375 -5.6875 C 9.675781 -6.34375 9.835938 -6.929688 9.921875 -7.453125 C 9.941406 -7.609375 9.9375 -7.765625 9.90625 -7.921875 C 9.84375 -8.179688 9.679688 -8.328125 9.421875 -8.359375 C 9.390625 -8.367188 9.359375 -8.375 9.328125 -8.375 C 9.253906 -8.375 9.175781 -8.363281 9.09375 -8.34375 C 8.769531 -8.269531 8.367188 -8.117188 7.890625 -7.890625 C 7.410156 -7.660156 6.90625 -7.375 6.375 -7.03125 C 5.84375 -6.6875 5.335938 -6.3125 4.859375 -5.90625 C 4.378906 -5.5 3.972656 -5.082031 3.640625 -4.65625 C 3.304688 -4.238281 3.09375 -3.835938 3 -3.453125 C 2.925781 -3.109375 3.046875 -2.859375 3.359375 -2.703125 C 3.609375 -2.597656 3.875 -2.550781 4.15625 -2.5625 C 4.4375 -2.570312 4.707031 -2.601562 4.96875 -2.65625 C 5.125 -2.695312 5.28125 -2.71875 5.4375 -2.71875 C 5.507812 -2.71875 5.578125 -2.710938 5.640625 -2.703125 C 5.648438 -2.703125 5.660156 -2.695312 5.671875 -2.6875 C 5.691406 -2.675781 5.703125 -2.660156 5.703125 -2.640625 C 5.691406 -2.597656 5.664062 -2.578125 5.625 -2.578125 C 5.40625 -2.554688 5.1875 -2.523438 4.96875 -2.484375 C 4.695312 -2.441406 4.425781 -2.410156 4.15625 -2.390625 C 3.882812 -2.378906 3.613281 -2.40625 3.34375 -2.46875 C 3.207031 -2.507812 3.082031 -2.566406 2.96875 -2.640625 C 2.695312 -2.828125 2.585938 -3.085938 2.640625 -3.421875 C 2.710938 -3.835938 2.921875 -4.269531 3.265625 -4.71875 C 3.617188 -5.175781 4.050781 -5.617188 4.5625 -6.046875 C 5.070312 -6.472656 5.609375 -6.863281 6.171875 -7.21875 C 6.742188 -7.582031 7.285156 -7.878906 7.796875 -8.109375 C 8.304688 -8.347656 8.738281 -8.492188 9.09375 -8.546875 C 9.1875 -8.566406 9.273438 -8.570312 9.359375 -8.5625 C 9.515625 -8.570312 9.660156 -8.550781 9.796875 -8.5 C 10.054688 -8.414062 10.222656 -8.238281 10.296875 -7.96875 C 10.359375 -7.6875 10.320312 -7.289062 10.1875 -6.78125 C 10.0625 -6.28125 9.867188 -5.722656 9.609375 -5.109375 C 9.359375 -4.492188 9.078125 -3.875 8.765625 -3.25 C 8.453125 -2.632812 8.144531 -2.0625 7.84375 -1.53125 C 7.550781 -1.007812 7.296875 -0.59375 7.078125 -0.28125 C 7.023438 -0.195312 6.96875 -0.109375 6.90625 -0.015625 C 6.894531 0.00390625 6.894531 0.0234375 6.90625 0.046875 C 6.925781 0.0664062 6.945312 0.078125 6.96875 0.078125 L 6.984375 0.078125 C 7.046875 0.078125 7.113281 0.0703125 7.1875 0.0625 C 7.394531 0.0625 7.609375 0.0507812 7.828125 0.03125 C 8.265625 0.0195312 8.707031 0.00390625 9.15625 -0.015625 C 12.238281 -0.0976562 15.320312 0 18.40625 0.28125 Z M 5.828125 0.796875 C 5.847656 0.773438 5.875 0.75 5.90625 0.71875 C 5.9375 0.675781 5.972656 0.625 6.015625 0.5625 C 6.054688 0.507812 6.09375 0.445312 6.125 0.375 C 6.09375 0.375 6.0625 0.375 6.03125 0.375 C 6.019531 0.375 6.007812 0.375 6 0.375 C 5.976562 0.375 5.957031 0.375 5.9375 0.375 C 5.8125 0.382812 5.6875 0.398438 5.5625 0.421875 C 5.382812 0.441406 5.210938 0.460938 5.046875 0.484375 C 4.660156 0.515625 4.210938 0.578125 3.703125 0.671875 C 3.203125 0.765625 2.707031 0.890625 2.21875 1.046875 C 1.726562 1.210938 1.328125 1.414062 1.015625 1.65625 C 0.910156 1.738281 0.8125 1.832031 0.71875 1.9375 C 0.457031 2.269531 0.484375 2.578125 0.796875 2.859375 C 1.160156 3.148438 1.53125 3.304688 1.90625 3.328125 C 2.289062 3.359375 2.671875 3.289062 3.046875 3.125 C 3.429688 2.96875 3.796875 2.753906 4.140625 2.484375 C 4.492188 2.210938 4.8125 1.925781 5.09375 1.625 C 5.382812 1.320312 5.628906 1.046875 5.828125 0.796875 Z M 5.828125 0.796875 "/></g></g></g><g fill="rgb(100%, 100%, 100%)" fill-opacity="1"><g transform="translate(22.529816, 33.193335)"><g><path d="M 0.4375 -0.640625 L 0.421875 -0.640625 C 0.160156 -0.640625 -0.0078125 -0.695312 -0.09375 -0.8125 C -0.175781 -0.925781 -0.171875 -1.078125 -0.078125 -1.265625 C -0.00390625 -1.410156 0.0859375 -1.535156 0.203125 -1.640625 C 0.242188 -1.679688 0.285156 -1.710938 0.328125 -1.734375 C 0.367188 -1.753906 0.414062 -1.765625 0.46875 -1.765625 C 0.5 -1.765625 0.535156 -1.757812 0.578125 -1.75 C 0.585938 -1.738281 0.597656 -1.734375 0.609375 -1.734375 C 0.640625 -1.734375 0.671875 -1.742188 0.703125 -1.765625 C 0.703125 -1.765625 0.710938 -1.769531 0.734375 -1.78125 C 0.785156 -1.800781 0.847656 -1.804688 0.921875 -1.796875 C 0.941406 -1.796875 0.96875 -1.796875 1 -1.796875 C 1.101562 -1.785156 1.179688 -1.742188 1.234375 -1.671875 C 1.296875 -1.597656 1.316406 -1.507812 1.296875 -1.40625 C 1.285156 -1.34375 1.265625 -1.28125 1.234375 -1.21875 C 1.023438 -0.851562 0.765625 -0.660156 0.453125 -0.640625 Z M 0.859375 -1.609375 C 0.710938 -1.617188 0.582031 -1.578125 0.46875 -1.484375 C 0.363281 -1.398438 0.285156 -1.300781 0.234375 -1.1875 C 0.179688 -1.070312 0.164062 -0.976562 0.1875 -0.90625 C 0.207031 -0.832031 0.28125 -0.8125 0.40625 -0.84375 C 0.550781 -0.882812 0.675781 -0.960938 0.78125 -1.078125 C 0.894531 -1.203125 0.960938 -1.316406 0.984375 -1.421875 C 1.015625 -1.535156 0.972656 -1.597656 0.859375 -1.609375 Z M 0.859375 -1.609375 "/></g></g></g><g fill="rgb(100%, 100%, 100%)" fill-opacity="1"><g transform="translate(24.629567, 33.193335)"><g><path d="M 1.96875 -1.375 C 2.007812 -1.351562 2.007812 -1.296875 1.96875 -1.203125 C 1.914062 -1.128906 1.859375 -1.0625 1.796875 -1 C 1.742188 -0.945312 1.679688 -0.894531 1.609375 -0.84375 C 1.554688 -0.8125 1.503906 -0.785156 1.453125 -0.765625 C 1.023438 -0.609375 0.804688 -0.695312 0.796875 -1.03125 C 0.617188 -0.882812 0.5 -0.789062 0.4375 -0.75 C 0.300781 -0.664062 0.148438 -0.628906 -0.015625 -0.640625 C -0.140625 -0.648438 -0.222656 -0.6875 -0.265625 -0.75 C -0.316406 -0.820312 -0.316406 -0.914062 -0.265625 -1.03125 C -0.179688 -1.207031 -0.0664062 -1.367188 0.078125 -1.515625 C 0.242188 -1.671875 0.4375 -1.800781 0.65625 -1.90625 C 0.757812 -1.957031 0.875 -1.976562 1 -1.96875 C 1.125 -1.957031 1.195312 -1.882812 1.21875 -1.75 C 1.226562 -1.71875 1.21875 -1.6875 1.1875 -1.65625 C 1.15625 -1.613281 1.113281 -1.601562 1.0625 -1.625 C 1.050781 -1.625 1.039062 -1.625 1.03125 -1.625 C 1.03125 -1.625 1.03125 -1.628906 1.03125 -1.640625 C 0.976562 -1.710938 0.921875 -1.738281 0.859375 -1.71875 C 0.804688 -1.707031 0.753906 -1.6875 0.703125 -1.65625 C 0.421875 -1.488281 0.210938 -1.257812 0.078125 -0.96875 C 0.0664062 -0.957031 0.0625 -0.941406 0.0625 -0.921875 C 0.0625 -0.910156 0.0664062 -0.898438 0.078125 -0.890625 C 0.109375 -0.878906 0.144531 -0.878906 0.1875 -0.890625 C 0.226562 -0.910156 0.265625 -0.9375 0.296875 -0.96875 C 0.335938 -1 0.375 -1.023438 0.40625 -1.046875 C 0.539062 -1.160156 0.671875 -1.273438 0.796875 -1.390625 C 0.859375 -1.453125 0.925781 -1.488281 1 -1.5 C 1.125 -1.5 1.175781 -1.441406 1.15625 -1.328125 C 1.144531 -1.285156 1.132812 -1.25 1.125 -1.21875 C 1.070312 -1.039062 1.066406 -0.9375 1.109375 -0.90625 C 1.160156 -0.875 1.226562 -0.875 1.3125 -0.90625 C 1.40625 -0.9375 1.492188 -0.992188 1.578125 -1.078125 C 1.671875 -1.160156 1.75 -1.238281 1.8125 -1.3125 C 1.875 -1.382812 1.925781 -1.40625 1.96875 -1.375 Z M 1.296875 -2.453125 C 1.335938 -2.441406 1.363281 -2.414062 1.375 -2.375 C 1.382812 -2.257812 1.335938 -2.171875 1.234375 -2.109375 C 1.160156 -2.066406 1.078125 -2.050781 0.984375 -2.0625 C 0.847656 -2.050781 0.734375 -2.097656 0.640625 -2.203125 C 0.578125 -2.273438 0.53125 -2.3125 0.5 -2.3125 C 0.476562 -2.3125 0.4375 -2.273438 0.375 -2.203125 C 0.363281 -2.191406 0.359375 -2.179688 0.359375 -2.171875 C 0.328125 -2.148438 0.296875 -2.132812 0.265625 -2.125 C 0.242188 -2.125 0.21875 -2.128906 0.1875 -2.140625 C 0.15625 -2.148438 0.132812 -2.160156 0.125 -2.171875 C 0.125 -2.191406 0.125 -2.210938 0.125 -2.234375 C 0.1875 -2.328125 0.265625 -2.394531 0.359375 -2.4375 C 0.460938 -2.476562 0.5625 -2.484375 0.65625 -2.453125 C 0.707031 -2.441406 0.753906 -2.414062 0.796875 -2.375 C 0.804688 -2.351562 0.820312 -2.335938 0.84375 -2.328125 C 0.863281 -2.296875 0.882812 -2.269531 0.90625 -2.25 C 0.976562 -2.1875 1.039062 -2.195312 1.09375 -2.28125 C 1.101562 -2.300781 1.113281 -2.316406 1.125 -2.328125 C 1.125 -2.335938 1.128906 -2.351562 1.140625 -2.375 C 1.171875 -2.4375 1.222656 -2.460938 1.296875 -2.453125 Z M 1.296875 -2.453125 "/></g></g></g><g fill="rgb(100%, 100%, 100%)" fill-opacity="1"><g transform="translate(27.08706, 33.193335)"><g><path d="M 0.4375 -0.640625 L 0.421875 -0.640625 C 0.160156 -0.640625 -0.0078125 -0.695312 -0.09375 -0.8125 C -0.175781 -0.925781 -0.171875 -1.078125 -0.078125 -1.265625 C -0.00390625 -1.410156 0.0859375 -1.535156 0.203125 -1.640625 C 0.242188 -1.679688 0.285156 -1.710938 0.328125 -1.734375 C 0.367188 -1.753906 0.414062 -1.765625 0.46875 -1.765625 C 0.5 -1.765625 0.535156 -1.757812 0.578125 -1.75 C 0.585938 -1.738281 0.597656 -1.734375 0.609375 -1.734375 C 0.640625 -1.734375 0.671875 -1.742188 0.703125 -1.765625 C 0.703125 -1.765625 0.710938 -1.769531 0.734375 -1.78125 C 0.785156 -1.800781 0.847656 -1.804688 0.921875 -1.796875 C 0.941406 -1.796875 0.96875 -1.796875 1 -1.796875 C 1.101562 -1.785156 1.179688 -1.742188 1.234375 -1.671875 C 1.296875 -1.597656 1.316406 -1.507812 1.296875 -1.40625 C 1.285156 -1.34375 1.265625 -1.28125 1.234375 -1.21875 C 1.023438 -0.851562 0.765625 -0.660156 0.453125 -0.640625 Z M 0.859375 -1.609375 C 0.710938 -1.617188 0.582031 -1.578125 0.46875 -1.484375 C 0.363281 -1.398438 0.285156 -1.300781 0.234375 -1.1875 C 0.179688 -1.070312 0.164062 -0.976562 0.1875 -0.90625 C 0.207031 -0.832031 0.28125 -0.8125 0.40625 -0.84375 C 0.550781 -0.882812 0.675781 -0.960938 0.78125 -1.078125 C 0.894531 -1.203125 0.960938 -1.316406 0.984375 -1.421875 C 1.015625 -1.535156 0.972656 -1.597656 0.859375 -1.609375 Z M 0.859375 -1.609375 "/></g></g></g><g fill="rgb(100%, 100%, 100%)" fill-opacity="1"><g transform="translate(29.186811, 33.193335)"><g/></g></g><g fill="rgb(100%, 100%, 100%)" fill-opacity="1"><g transform="translate(31.896348, 33.193335)"><g><path d="M 15.125 -7.09375 C 15.070312 -7.082031 15.023438 -7.082031 14.984375 -7.09375 C 14.953125 -7.101562 14.921875 -7.117188 14.890625 -7.140625 C 14.867188 -7.148438 14.851562 -7.160156 14.84375 -7.171875 C 14.382812 -7.421875 13.894531 -7.609375 13.375 -7.734375 C 12.03125 -8.046875 10.664062 -7.910156 9.28125 -7.328125 C 8.769531 -7.109375 8.28125 -6.847656 7.8125 -6.546875 C 7.34375 -6.242188 6.882812 -5.914062 6.4375 -5.5625 C 5.726562 -4.976562 5.070312 -4.34375 4.46875 -3.65625 C 3.863281 -2.96875 3.304688 -2.234375 2.796875 -1.453125 C 2.617188 -1.171875 2.441406 -0.890625 2.265625 -0.609375 C 2.265625 -0.597656 2.265625 -0.585938 2.265625 -0.578125 C 2.128906 -0.378906 2.019531 -0.164062 1.9375 0.0625 C 1.894531 0.164062 1.847656 0.265625 1.796875 0.359375 C 1.722656 0.492188 1.625 0.546875 1.5 0.515625 C 1.425781 0.492188 1.394531 0.445312 1.40625 0.375 C 1.40625 0.3125 1.421875 0.257812 1.453125 0.21875 C 1.585938 -0.0507812 1.707031 -0.320312 1.8125 -0.59375 C 1.914062 -0.875 2.015625 -1.148438 2.109375 -1.421875 C 2.128906 -1.492188 2.148438 -1.566406 2.171875 -1.640625 C 2.722656 -3.234375 3.226562 -4.835938 3.6875 -6.453125 C 3.695312 -6.484375 3.703125 -6.515625 3.703125 -6.546875 C 3.703125 -6.566406 3.707031 -6.585938 3.71875 -6.609375 C 3.664062 -6.597656 3.628906 -6.582031 3.609375 -6.5625 C 3.585938 -6.539062 3.566406 -6.515625 3.546875 -6.484375 C 3.546875 -6.472656 3.539062 -6.460938 3.53125 -6.453125 C 3.507812 -6.410156 3.484375 -6.363281 3.453125 -6.3125 C 3.191406 -5.90625 2.929688 -5.492188 2.671875 -5.078125 C 2.265625 -4.410156 1.851562 -3.742188 1.4375 -3.078125 C 0.851562 -2.109375 0.257812 -1.140625 -0.34375 -0.171875 C -0.476562 0.046875 -0.617188 0.253906 -0.765625 0.453125 C -0.796875 0.503906 -0.828125 0.554688 -0.859375 0.609375 C -0.910156 0.691406 -0.988281 0.742188 -1.09375 0.765625 C -1.125 0.773438 -1.148438 0.773438 -1.171875 0.765625 C -1.191406 0.765625 -1.207031 0.75 -1.21875 0.71875 C -1.226562 0.707031 -1.226562 0.691406 -1.21875 0.671875 C -1.207031 0.648438 -1.195312 0.628906 -1.1875 0.609375 C 0.238281 -1.734375 1.671875 -4.070312 3.109375 -6.40625 C 3.242188 -6.613281 3.382812 -6.816406 3.53125 -7.015625 C 3.5625 -7.054688 3.59375 -7.097656 3.625 -7.140625 C 3.707031 -7.265625 3.816406 -7.34375 3.953125 -7.375 C 4.035156 -7.394531 4.097656 -7.382812 4.140625 -7.34375 C 4.191406 -7.300781 4.210938 -7.238281 4.203125 -7.15625 C 4.179688 -6.894531 4.128906 -6.640625 4.046875 -6.390625 C 3.660156 -5.023438 3.242188 -3.671875 2.796875 -2.328125 C 2.785156 -2.316406 2.78125 -2.304688 2.78125 -2.296875 C 2.757812 -2.253906 2.742188 -2.210938 2.734375 -2.171875 C 2.734375 -2.128906 2.742188 -2.085938 2.765625 -2.046875 C 2.796875 -2.085938 2.828125 -2.128906 2.859375 -2.171875 C 2.929688 -2.253906 2.992188 -2.335938 3.046875 -2.421875 C 3.753906 -3.421875 4.5625 -4.328125 5.46875 -5.140625 C 5.988281 -5.609375 6.523438 -6.039062 7.078125 -6.4375 C 7.640625 -6.832031 8.226562 -7.171875 8.84375 -7.453125 C 10.125 -8.015625 11.40625 -8.222656 12.6875 -8.078125 C 13.488281 -7.984375 14.238281 -7.75 14.9375 -7.375 C 14.957031 -7.375 14.976562 -7.367188 15 -7.359375 C 15.03125 -7.335938 15.0625 -7.316406 15.09375 -7.296875 C 15.125 -7.273438 15.148438 -7.25 15.171875 -7.21875 C 15.179688 -7.207031 15.1875 -7.191406 15.1875 -7.171875 C 15.1875 -7.160156 15.179688 -7.148438 15.171875 -7.140625 C 15.171875 -7.128906 15.164062 -7.117188 15.15625 -7.109375 C 15.144531 -7.097656 15.132812 -7.09375 15.125 -7.09375 Z M 15.125 -7.09375 "/></g></g></g><g fill="rgb(100%, 100%, 100%)" fill-opacity="1"><g transform="translate(36.486737, 33.193335)"><g><path d="M 0.4375 -0.640625 L 0.421875 -0.640625 C 0.160156 -0.640625 -0.0078125 -0.695312 -0.09375 -0.8125 C -0.175781 -0.925781 -0.171875 -1.078125 -0.078125 -1.265625 C -0.00390625 -1.410156 0.0859375 -1.535156 0.203125 -1.640625 C 0.242188 -1.679688 0.285156 -1.710938 0.328125 -1.734375 C 0.367188 -1.753906 0.414062 -1.765625 0.46875 -1.765625 C 0.5 -1.765625 0.535156 -1.757812 0.578125 -1.75 C 0.585938 -1.738281 0.597656 -1.734375 0.609375 -1.734375 C 0.640625 -1.734375 0.671875 -1.742188 0.703125 -1.765625 C 0.703125 -1.765625 0.710938 -1.769531 0.734375 -1.78125 C 0.785156 -1.800781 0.847656 -1.804688 0.921875 -1.796875 C 0.941406 -1.796875 0.96875 -1.796875 1 -1.796875 C 1.101562 -1.785156 1.179688 -1.742188 1.234375 -1.671875 C 1.296875 -1.597656 1.316406 -1.507812 1.296875 -1.40625 C 1.285156 -1.34375 1.265625 -1.28125 1.234375 -1.21875 C 1.023438 -0.851562 0.765625 -0.660156 0.453125 -0.640625 Z M 0.859375 -1.609375 C 0.710938 -1.617188 0.582031 -1.578125 0.46875 -1.484375 C 0.363281 -1.398438 0.285156 -1.300781 0.234375 -1.1875 C 0.179688 -1.070312 0.164062 -0.976562 0.1875 -0.90625 C 0.207031 -0.832031 0.28125 -0.8125 0.40625 -0.84375 C 0.550781 -0.882812 0.675781 -0.960938 0.78125 -1.078125 C 0.894531 -1.203125 0.960938 -1.316406 0.984375 -1.421875 C 1.015625 -1.535156 0.972656 -1.597656 0.859375 -1.609375 Z M 0.859375 -1.609375 "/></g></g></g><g fill="rgb(100%, 100%, 100%)" fill-opacity="1"><g transform="translate(38.586489, 33.193335)"><g><path d="M 2.40625 -1.421875 C 2.445312 -1.410156 2.46875 -1.394531 2.46875 -1.375 C 2.46875 -1.363281 2.46875 -1.359375 2.46875 -1.359375 C 2.425781 -1.285156 2.375 -1.210938 2.3125 -1.140625 C 2.1875 -1.003906 2.039062 -0.894531 1.875 -0.8125 C 1.789062 -0.757812 1.695312 -0.734375 1.59375 -0.734375 C 1.351562 -0.722656 1.238281 -0.835938 1.25 -1.078125 C 1.257812 -1.128906 1.273438 -1.179688 1.296875 -1.234375 C 1.304688 -1.253906 1.3125 -1.273438 1.3125 -1.296875 C 1.332031 -1.390625 1.335938 -1.441406 1.328125 -1.453125 C 1.316406 -1.460938 1.289062 -1.4375 1.25 -1.375 C 1.238281 -1.363281 1.222656 -1.351562 1.203125 -1.34375 C 1.140625 -1.25 1.066406 -1.160156 0.984375 -1.078125 C 0.847656 -0.921875 0.691406 -0.789062 0.515625 -0.6875 C 0.410156 -0.625 0.296875 -0.585938 0.171875 -0.578125 C -0.0234375 -0.566406 -0.132812 -0.65625 -0.15625 -0.84375 C -0.164062 -0.925781 -0.160156 -1.003906 -0.140625 -1.078125 C -0.0664062 -1.378906 0.0859375 -1.609375 0.328125 -1.765625 C 0.566406 -1.929688 0.84375 -1.992188 1.15625 -1.953125 C 1.238281 -1.921875 1.300781 -1.941406 1.34375 -2.015625 C 1.351562 -2.046875 1.367188 -2.078125 1.390625 -2.109375 C 1.472656 -2.242188 1.554688 -2.382812 1.640625 -2.53125 C 1.785156 -2.800781 1.929688 -3.078125 2.078125 -3.359375 C 2.203125 -3.578125 2.328125 -3.796875 2.453125 -4.015625 C 2.492188 -4.085938 2.535156 -4.15625 2.578125 -4.21875 C 2.597656 -4.25 2.617188 -4.265625 2.640625 -4.265625 C 2.671875 -4.273438 2.703125 -4.28125 2.734375 -4.28125 C 2.742188 -4.28125 2.753906 -4.28125 2.765625 -4.28125 C 2.796875 -4.28125 2.820312 -4.269531 2.84375 -4.25 C 2.875 -4.238281 2.878906 -4.21875 2.859375 -4.1875 C 2.835938 -4.101562 2.8125 -4.03125 2.78125 -3.96875 C 2.613281 -3.632812 2.457031 -3.296875 2.3125 -2.953125 C 2.164062 -2.617188 2.019531 -2.273438 1.875 -1.921875 C 1.832031 -1.804688 1.785156 -1.691406 1.734375 -1.578125 C 1.671875 -1.429688 1.617188 -1.285156 1.578125 -1.140625 C 1.566406 -1.109375 1.5625 -1.078125 1.5625 -1.046875 C 1.5625 -1.015625 1.578125 -0.988281 1.609375 -0.96875 C 1.628906 -0.945312 1.648438 -0.941406 1.671875 -0.953125 C 1.691406 -0.960938 1.71875 -0.972656 1.75 -0.984375 C 1.75 -0.992188 1.753906 -1 1.765625 -1 C 1.929688 -1.09375 2.085938 -1.210938 2.234375 -1.359375 C 2.253906 -1.378906 2.273438 -1.394531 2.296875 -1.40625 C 2.328125 -1.425781 2.363281 -1.429688 2.40625 -1.421875 Z M 1.0625 -1.59375 C 1.082031 -1.632812 1.085938 -1.664062 1.078125 -1.6875 C 1.078125 -1.71875 1.0625 -1.742188 1.03125 -1.765625 C 0.957031 -1.796875 0.882812 -1.800781 0.8125 -1.78125 C 0.625 -1.71875 0.46875 -1.609375 0.34375 -1.453125 C 0.21875 -1.296875 0.148438 -1.125 0.140625 -0.9375 C 0.140625 -0.925781 0.140625 -0.921875 0.140625 -0.921875 C 0.140625 -0.898438 0.140625 -0.878906 0.140625 -0.859375 C 0.160156 -0.773438 0.210938 -0.757812 0.296875 -0.8125 C 0.390625 -0.863281 0.492188 -0.945312 0.609375 -1.0625 C 0.722656 -1.1875 0.820312 -1.300781 0.90625 -1.40625 C 1 -1.519531 1.050781 -1.582031 1.0625 -1.59375 Z M 1.0625 -1.59375 "/></g></g></g><g fill="rgb(100%, 100%, 100%)" fill-opacity="1"><g transform="translate(41.512838, 33.193335)"><g><path d="M 1.96875 -1.375 C 2.007812 -1.351562 2.007812 -1.296875 1.96875 -1.203125 C 1.914062 -1.128906 1.859375 -1.0625 1.796875 -1 C 1.742188 -0.945312 1.679688 -0.894531 1.609375 -0.84375 C 1.554688 -0.8125 1.503906 -0.785156 1.453125 -0.765625 C 1.023438 -0.609375 0.804688 -0.695312 0.796875 -1.03125 C 0.617188 -0.882812 0.5 -0.789062 0.4375 -0.75 C 0.300781 -0.664062 0.148438 -0.628906 -0.015625 -0.640625 C -0.140625 -0.648438 -0.222656 -0.6875 -0.265625 -0.75 C -0.316406 -0.820312 -0.316406 -0.914062 -0.265625 -1.03125 C -0.179688 -1.207031 -0.0664062 -1.367188 0.078125 -1.515625 C 0.242188 -1.671875 0.4375 -1.800781 0.65625 -1.90625 C 0.757812 -1.957031 0.875 -1.976562 1 -1.96875 C 1.125 -1.957031 1.195312 -1.882812 1.21875 -1.75 C 1.226562 -1.71875 1.21875 -1.6875 1.1875 -1.65625 C 1.15625 -1.613281 1.113281 -1.601562 1.0625 -1.625 C 1.050781 -1.625 1.039062 -1.625 1.03125 -1.625 C 1.03125 -1.625 1.03125 -1.628906 1.03125 -1.640625 C 0.976562 -1.710938 0.921875 -1.738281 0.859375 -1.71875 C 0.804688 -1.707031 0.753906 -1.6875 0.703125 -1.65625 C 0.421875 -1.488281 0.210938 -1.257812 0.078125 -0.96875 C 0.0664062 -0.957031 0.0625 -0.941406 0.0625 -0.921875 C 0.0625 -0.910156 0.0664062 -0.898438 0.078125 -0.890625 C 0.109375 -0.878906 0.144531 -0.878906 0.1875 -0.890625 C 0.226562 -0.910156 0.265625 -0.9375 0.296875 -0.96875 C 0.335938 -1 0.375 -1.023438 0.40625 -1.046875 C 0.539062 -1.160156 0.671875 -1.273438 0.796875 -1.390625 C 0.859375 -1.453125 0.925781 -1.488281 1 -1.5 C 1.125 -1.5 1.175781 -1.441406 1.15625 -1.328125 C 1.144531 -1.285156 1.132812 -1.25 1.125 -1.21875 C 1.070312 -1.039062 1.066406 -0.9375 1.109375 -0.90625 C 1.160156 -0.875 1.226562 -0.875 1.3125 -0.90625 C 1.40625 -0.9375 1.492188 -0.992188 1.578125 -1.078125 C 1.671875 -1.160156 1.75 -1.238281 1.8125 -1.3125 C 1.875 -1.382812 1.925781 -1.40625 1.96875 -1.375 Z M 1.96875 -1.375 "/></g></g></g><g fill="rgb(100%, 100%, 100%)" fill-opacity="1"><g transform="translate(43.970331, 33.193335)"><g><path d="M 1.296875 -1.65625 C 1.285156 -1.53125 1.226562 -1.445312 1.125 -1.40625 C 1.019531 -1.375 0.984375 -1.425781 1.015625 -1.5625 C 1.054688 -1.707031 0.992188 -1.742188 0.828125 -1.671875 C 0.671875 -1.609375 0.546875 -1.523438 0.453125 -1.421875 C 0.285156 -1.253906 0.144531 -1.078125 0.03125 -0.890625 C 0.0078125 -0.867188 0 -0.851562 0 -0.84375 C -0.0390625 -0.789062 -0.078125 -0.742188 -0.109375 -0.703125 C -0.140625 -0.671875 -0.171875 -0.648438 -0.203125 -0.640625 C -0.234375 -0.628906 -0.265625 -0.628906 -0.296875 -0.640625 C -0.328125 -0.640625 -0.347656 -0.648438 -0.359375 -0.671875 C -0.378906 -0.691406 -0.382812 -0.710938 -0.375 -0.734375 C -0.351562 -0.785156 -0.328125 -0.835938 -0.296875 -0.890625 C -0.128906 -1.191406 0.0351562 -1.492188 0.203125 -1.796875 C 0.203125 -1.796875 0.203125 -1.800781 0.203125 -1.8125 C 0.222656 -1.851562 0.25 -1.894531 0.28125 -1.9375 C 0.320312 -1.976562 0.363281 -1.992188 0.40625 -1.984375 C 0.457031 -1.984375 0.488281 -1.957031 0.5 -1.90625 C 0.519531 -1.84375 0.535156 -1.804688 0.546875 -1.796875 C 0.566406 -1.785156 0.601562 -1.789062 0.65625 -1.8125 C 0.757812 -1.851562 0.863281 -1.878906 0.96875 -1.890625 C 1.070312 -1.910156 1.15625 -1.90625 1.21875 -1.875 C 1.289062 -1.851562 1.316406 -1.78125 1.296875 -1.65625 Z M 1.296875 -1.65625 "/></g></g></g><g fill="rgb(100%, 100%, 100%)" fill-opacity="1"><g transform="translate(45.986066, 33.193335)"><g><path d="M 1.078125 -1.140625 C 0.984375 -1.023438 0.867188 -0.921875 0.734375 -0.828125 C 0.597656 -0.734375 0.445312 -0.664062 0.28125 -0.625 C 0.113281 -0.59375 -0.0078125 -0.601562 -0.09375 -0.65625 C -0.1875 -0.71875 -0.207031 -0.847656 -0.15625 -1.046875 C -0.0820312 -1.253906 0.015625 -1.453125 0.140625 -1.640625 C 0.171875 -1.679688 0.210938 -1.707031 0.265625 -1.71875 C 0.304688 -1.726562 0.34375 -1.722656 0.375 -1.703125 C 0.40625 -1.679688 0.414062 -1.65625 0.40625 -1.625 C 0.375 -1.550781 0.34375 -1.484375 0.3125 -1.421875 C 0.28125 -1.359375 0.257812 -1.316406 0.25 -1.296875 C 0.1875 -1.179688 0.144531 -1.0625 0.125 -0.9375 C 0.125 -0.863281 0.21875 -0.859375 0.40625 -0.921875 C 0.601562 -0.984375 0.789062 -1.097656 0.96875 -1.265625 C 1.15625 -1.429688 1.242188 -1.476562 1.234375 -1.40625 C 1.222656 -1.34375 1.171875 -1.253906 1.078125 -1.140625 Z M 0.609375 -2.046875 C 0.597656 -2.035156 0.578125 -2.023438 0.546875 -2.015625 C 0.515625 -2.003906 0.484375 -2 0.453125 -2 C 0.421875 -2 0.394531 -2.003906 0.375 -2.015625 C 0.363281 -2.023438 0.363281 -2.054688 0.375 -2.109375 C 0.40625 -2.179688 0.4375 -2.242188 0.46875 -2.296875 C 0.5 -2.359375 0.539062 -2.421875 0.59375 -2.484375 C 0.625 -2.515625 0.660156 -2.53125 0.703125 -2.53125 C 0.742188 -2.539062 0.773438 -2.53125 0.796875 -2.5 C 0.816406 -2.476562 0.820312 -2.453125 0.8125 -2.421875 C 0.78125 -2.273438 0.710938 -2.148438 0.609375 -2.046875 Z M 0.609375 -2.046875 "/></g></g></g><g fill="rgb(100%, 100%, 100%)" fill-opacity="1"><g transform="translate(17.753523, 53.960001)"><g><path d="M 11.375 -4.78125 C 11.25 -4.945312 11.109375 -5.09375 10.953125 -5.21875 C 10.796875 -5.351562 10.628906 -5.46875 10.453125 -5.5625 C 10.003906 -5.8125 9.546875 -5.945312 9.078125 -5.96875 C 8.609375 -5.988281 8.132812 -5.914062 7.65625 -5.75 C 7.175781 -5.582031 6.703125 -5.34375 6.234375 -5.03125 C 5.765625 -4.71875 5.3125 -4.359375 4.875 -3.953125 C 4.445312 -3.546875 4.039062 -3.109375 3.65625 -2.640625 C 3.28125 -2.179688 2.9375 -1.710938 2.625 -1.234375 C 2.320312 -0.765625 2.066406 -0.3125 1.859375 0.125 C 1.765625 0.351562 1.671875 0.578125 1.578125 0.796875 C 1.546875 0.898438 1.507812 1 1.46875 1.09375 C 1.457031 1.113281 1.445312 1.132812 1.4375 1.15625 C 1.425781 1.1875 1.410156 1.222656 1.390625 1.265625 C 1.378906 1.296875 1.359375 1.316406 1.328125 1.328125 C 1.296875 1.335938 1.265625 1.335938 1.234375 1.328125 C 1.203125 1.316406 1.1875 1.296875 1.1875 1.265625 C 1.1875 1.222656 1.191406 1.179688 1.203125 1.140625 C 1.222656 0.984375 1.238281 0.828125 1.25 0.671875 C 1.269531 0.515625 1.285156 0.359375 1.296875 0.203125 C 1.304688 0.148438 1.3125 0.101562 1.3125 0.0625 C 1.3125 0.0390625 1.3125 0.015625 1.3125 -0.015625 C 1.332031 -0.285156 1.351562 -0.554688 1.375 -0.828125 C 1.375 -0.953125 1.375 -1.078125 1.375 -1.203125 C 1.375 -1.253906 1.375 -1.300781 1.375 -1.34375 C 1.375 -1.34375 1.375 -1.347656 1.375 -1.359375 C 1.375 -1.390625 1.375 -1.421875 1.375 -1.453125 C 1.363281 -1.472656 1.359375 -1.5 1.359375 -1.53125 C 1.359375 -1.5625 1.351562 -1.59375 1.34375 -1.625 C 1.332031 -1.664062 1.3125 -1.703125 1.28125 -1.734375 C 1.238281 -1.722656 1.203125 -1.703125 1.171875 -1.671875 C 1.148438 -1.648438 1.128906 -1.617188 1.109375 -1.578125 C 1.097656 -1.554688 1.085938 -1.539062 1.078125 -1.53125 C 0.953125 -1.34375 0.84375 -1.148438 0.75 -0.953125 C 0.675781 -0.804688 0.601562 -0.664062 0.53125 -0.53125 C 0.425781 -0.320312 0.328125 -0.117188 0.234375 0.078125 C 0.203125 0.148438 0.164062 0.21875 0.125 0.28125 C 0.101562 0.3125 0.0820312 0.335938 0.0625 0.359375 C 0.0078125 0.398438 -0.0390625 0.410156 -0.09375 0.390625 C -0.144531 0.378906 -0.171875 0.34375 -0.171875 0.28125 C -0.179688 0.175781 -0.179688 0.0703125 -0.171875 -0.03125 C -0.160156 -0.21875 -0.144531 -0.40625 -0.125 -0.59375 C -0.101562 -0.71875 -0.0820312 -0.84375 -0.0625 -0.96875 C 0.03125 -1.726562 0.117188 -2.492188 0.203125 -3.265625 C 0.203125 -3.328125 0.210938 -3.390625 0.234375 -3.453125 C 0.242188 -3.492188 0.273438 -3.523438 0.328125 -3.546875 C 0.347656 -3.546875 0.363281 -3.539062 0.375 -3.53125 C 0.394531 -3.519531 0.40625 -3.503906 0.40625 -3.484375 C 0.40625 -3.429688 0.40625 -3.378906 0.40625 -3.328125 C 0.375 -2.984375 0.335938 -2.628906 0.296875 -2.265625 C 0.253906 -1.910156 0.207031 -1.554688 0.15625 -1.203125 C 0.113281 -0.890625 0.078125 -0.582031 0.046875 -0.28125 C 0.046875 -0.257812 0.0390625 -0.238281 0.03125 -0.21875 C 0.03125 -0.15625 0.0234375 -0.09375 0.015625 -0.03125 C 0.015625 -0.0195312 0.015625 -0.0078125 0.015625 0 C 0.0234375 0 0.03125 0.00390625 0.03125 0.015625 C 0.0390625 0.015625 0.046875 0.0078125 0.046875 0 C 0.0546875 0 0.0625 -0.00390625 0.0625 -0.015625 C 0.101562 -0.0664062 0.132812 -0.125 0.15625 -0.1875 C 0.21875 -0.300781 0.273438 -0.414062 0.328125 -0.53125 C 0.441406 -0.757812 0.5625 -0.988281 0.6875 -1.21875 C 0.757812 -1.363281 0.847656 -1.507812 0.953125 -1.65625 C 0.992188 -1.71875 1.046875 -1.773438 1.109375 -1.828125 C 1.191406 -1.890625 1.269531 -1.910156 1.34375 -1.890625 C 1.425781 -1.867188 1.488281 -1.804688 1.53125 -1.703125 C 1.5625 -1.609375 1.578125 -1.507812 1.578125 -1.40625 C 1.585938 -1.289062 1.585938 -1.171875 1.578125 -1.046875 C 1.578125 -0.921875 1.570312 -0.796875 1.5625 -0.671875 C 1.5625 -0.648438 1.5625 -0.625 1.5625 -0.59375 C 1.550781 -0.382812 1.535156 -0.164062 1.515625 0.0625 C 1.503906 0.164062 1.5 0.265625 1.5 0.359375 C 1.519531 0.335938 1.535156 0.316406 1.546875 0.296875 C 1.566406 0.285156 1.578125 0.269531 1.578125 0.25 C 1.578125 0.25 1.582031 0.242188 1.59375 0.234375 C 1.78125 -0.222656 2.019531 -0.691406 2.3125 -1.171875 C 2.613281 -1.660156 2.953125 -2.140625 3.328125 -2.609375 C 3.703125 -3.078125 4.101562 -3.519531 4.53125 -3.9375 C 4.96875 -4.363281 5.421875 -4.738281 5.890625 -5.0625 C 6.359375 -5.394531 6.832031 -5.65625 7.3125 -5.84375 C 7.800781 -6.039062 8.285156 -6.148438 8.765625 -6.171875 C 9.242188 -6.191406 9.707031 -6.101562 10.15625 -5.90625 C 10.601562 -5.71875 11.03125 -5.398438 11.4375 -4.953125 C 11.4375 -4.953125 11.4375 -4.945312 11.4375 -4.9375 C 11.476562 -4.90625 11.507812 -4.863281 11.53125 -4.8125 C 11.53125 -4.789062 11.523438 -4.769531 11.515625 -4.75 C 11.503906 -4.738281 11.488281 -4.734375 11.46875 -4.734375 C 11.445312 -4.734375 11.429688 -4.738281 11.421875 -4.75 C 11.410156 -4.757812 11.394531 -4.769531 11.375 -4.78125 Z M 11.375 -4.78125 "/></g></g></g><g fill="rgb(100%, 100%, 100%)" fill-opacity="1"><g transform="translate(21.114404, 53.960001)"><g><path d="M 0.890625 -0.59375 C 0.828125 -0.539062 0.753906 -0.492188 0.671875 -0.453125 C 0.597656 -0.410156 0.53125 -0.378906 0.46875 -0.359375 C 0.414062 -0.347656 0.363281 -0.34375 0.3125 -0.34375 C 0.21875 -0.34375 0.132812 -0.351562 0.0625 -0.375 C -0.0625 -0.425781 -0.109375 -0.523438 -0.078125 -0.671875 C -0.0351562 -0.796875 0.0351562 -0.890625 0.140625 -0.953125 C 0.253906 -1.023438 0.375 -1.0625 0.5 -1.0625 C 0.53125 -1.0625 0.554688 -1.0625 0.578125 -1.0625 C 0.628906 -1.039062 0.660156 -1.007812 0.671875 -0.96875 C 0.679688 -0.9375 0.671875 -0.898438 0.640625 -0.859375 C 0.578125 -0.753906 0.488281 -0.695312 0.375 -0.6875 C 0.300781 -0.675781 0.226562 -0.675781 0.15625 -0.6875 C 0.144531 -0.695312 0.132812 -0.695312 0.125 -0.6875 C 0.113281 -0.675781 0.101562 -0.664062 0.09375 -0.65625 C 0.0703125 -0.5625 0.101562 -0.503906 0.1875 -0.484375 C 0.28125 -0.441406 0.375 -0.441406 0.46875 -0.484375 C 0.59375 -0.515625 0.707031 -0.578125 0.8125 -0.671875 C 0.914062 -0.773438 0.972656 -0.820312 0.984375 -0.8125 C 1.003906 -0.8125 1.007812 -0.796875 1 -0.765625 C 0.988281 -0.710938 0.953125 -0.65625 0.890625 -0.59375 Z M 0.21875 -0.859375 C 0.21875 -0.847656 0.210938 -0.835938 0.203125 -0.828125 C 0.203125 -0.816406 0.207031 -0.804688 0.21875 -0.796875 C 0.257812 -0.773438 0.300781 -0.769531 0.34375 -0.78125 C 0.382812 -0.789062 0.421875 -0.804688 0.453125 -0.828125 C 0.484375 -0.859375 0.492188 -0.890625 0.484375 -0.921875 C 0.484375 -0.941406 0.476562 -0.953125 0.46875 -0.953125 C 0.457031 -0.953125 0.445312 -0.953125 0.4375 -0.953125 C 0.351562 -0.941406 0.28125 -0.910156 0.21875 -0.859375 Z M 0.21875 -0.859375 "/></g></g></g><g fill="rgb(100%, 100%, 100%)" fill-opacity="1"><g transform="translate(22.40422, 53.960001)"><g><path d="M 0.796875 -2.484375 C 0.804688 -2.492188 0.816406 -2.5 0.828125 -2.5 C 0.847656 -2.507812 0.867188 -2.515625 0.890625 -2.515625 C 0.910156 -2.515625 0.925781 -2.515625 0.9375 -2.515625 C 0.945312 -2.515625 0.953125 -2.507812 0.953125 -2.5 C 0.941406 -2.445312 0.925781 -2.398438 0.90625 -2.359375 C 0.894531 -2.347656 0.890625 -2.335938 0.890625 -2.328125 C 0.804688 -2.128906 0.71875 -1.929688 0.625 -1.734375 C 0.613281 -1.703125 0.601562 -1.675781 0.59375 -1.65625 C 0.5625 -1.582031 0.519531 -1.5 0.46875 -1.40625 C 0.414062 -1.300781 0.367188 -1.207031 0.328125 -1.125 C 0.367188 -1.164062 0.414062 -1.195312 0.46875 -1.21875 C 0.519531 -1.238281 0.5625 -1.25 0.59375 -1.25 C 0.707031 -1.25 0.769531 -1.195312 0.78125 -1.09375 C 0.789062 -0.96875 0.765625 -0.84375 0.703125 -0.71875 C 0.648438 -0.59375 0.570312 -0.488281 0.46875 -0.40625 C 0.382812 -0.363281 0.300781 -0.34375 0.21875 -0.34375 C 0.144531 -0.351562 0.078125 -0.390625 0.015625 -0.453125 C 0.015625 -0.453125 0.0078125 -0.445312 0 -0.4375 C -0.0078125 -0.4375 -0.0195312 -0.429688 -0.03125 -0.421875 C -0.0390625 -0.410156 -0.0507812 -0.398438 -0.0625 -0.390625 C -0.0703125 -0.390625 -0.0820312 -0.390625 -0.09375 -0.390625 C -0.101562 -0.390625 -0.113281 -0.390625 -0.125 -0.390625 C -0.144531 -0.410156 -0.148438 -0.4375 -0.140625 -0.46875 C -0.0546875 -0.695312 0.0390625 -0.929688 0.15625 -1.171875 C 0.28125 -1.421875 0.398438 -1.664062 0.515625 -1.90625 C 0.566406 -2.007812 0.617188 -2.113281 0.671875 -2.21875 C 0.691406 -2.25 0.710938 -2.285156 0.734375 -2.328125 C 0.753906 -2.378906 0.773438 -2.429688 0.796875 -2.484375 Z M 0.40625 -1.0625 C 0.320312 -1.007812 0.25 -0.941406 0.1875 -0.859375 C 0.132812 -0.773438 0.117188 -0.6875 0.140625 -0.59375 C 0.148438 -0.539062 0.171875 -0.503906 0.203125 -0.484375 C 0.234375 -0.460938 0.273438 -0.46875 0.328125 -0.5 C 0.367188 -0.539062 0.410156 -0.59375 0.453125 -0.65625 C 0.503906 -0.726562 0.546875 -0.800781 0.578125 -0.875 C 0.597656 -0.9375 0.609375 -0.988281 0.609375 -1.03125 C 0.617188 -1.082031 0.609375 -1.113281 0.578125 -1.125 C 0.546875 -1.132812 0.488281 -1.113281 0.40625 -1.0625 Z M 0.40625 -1.0625 "/></g></g></g><g fill="rgb(100%, 100%, 100%)" fill-opacity="1"><g transform="translate(23.650303, 53.960001)"><g/></g></g><g fill="rgb(100%, 100%, 100%)" fill-opacity="1"><g transform="translate(25.211888, 53.960001)"><g><path d="M 10.796875 -2.109375 C 10.722656 -2.097656 10.644531 -2.09375 10.5625 -2.09375 C 10.488281 -2.082031 10.414062 -2.078125 10.34375 -2.078125 C 9.8125 -2.015625 9.28125 -1.941406 8.75 -1.859375 C 8.144531 -1.765625 7.539062 -1.648438 6.9375 -1.515625 C 6.832031 -1.492188 6.734375 -1.453125 6.640625 -1.390625 C 5.921875 -0.910156 5.175781 -0.476562 4.40625 -0.09375 C 3.644531 0.289062 2.863281 0.632812 2.0625 0.9375 C 1.707031 1.070312 1.347656 1.1875 0.984375 1.28125 C 0.816406 1.320312 0.644531 1.347656 0.46875 1.359375 C 0.445312 1.367188 0.425781 1.375 0.40625 1.375 C 0.332031 1.375 0.257812 1.359375 0.1875 1.328125 C 0.0703125 1.285156 0.0351562 1.207031 0.078125 1.09375 C 0.117188 1.007812 0.171875 0.9375 0.234375 0.875 C 0.367188 0.75 0.515625 0.640625 0.671875 0.546875 C 1.054688 0.316406 1.457031 0.113281 1.875 -0.0625 C 2.289062 -0.238281 2.710938 -0.398438 3.140625 -0.546875 C 3.148438 -0.546875 3.160156 -0.550781 3.171875 -0.5625 C 3.179688 -0.5625 3.195312 -0.566406 3.21875 -0.578125 C 3.269531 -0.597656 3.304688 -0.640625 3.328125 -0.703125 C 3.367188 -0.796875 3.410156 -0.890625 3.453125 -0.984375 C 3.453125 -1.003906 3.457031 -1.019531 3.46875 -1.03125 C 3.550781 -1.25 3.640625 -1.46875 3.734375 -1.6875 C 3.898438 -2.09375 4.066406 -2.503906 4.234375 -2.921875 C 4.347656 -3.179688 4.4375 -3.445312 4.5 -3.71875 C 4.5 -3.75 4.507812 -3.773438 4.53125 -3.796875 C 4.550781 -3.828125 4.578125 -3.835938 4.609375 -3.828125 C 4.617188 -3.835938 4.632812 -3.835938 4.65625 -3.828125 C 4.664062 -3.828125 4.675781 -3.820312 4.6875 -3.8125 C 4.695312 -3.800781 4.703125 -3.789062 4.703125 -3.78125 C 4.703125 -3.738281 4.695312 -3.695312 4.6875 -3.65625 C 4.644531 -3.414062 4.570312 -3.179688 4.46875 -2.953125 C 4.300781 -2.535156 4.128906 -2.117188 3.953125 -1.703125 C 3.890625 -1.535156 3.820312 -1.367188 3.75 -1.203125 C 3.738281 -1.171875 3.722656 -1.140625 3.703125 -1.109375 C 3.660156 -1.003906 3.617188 -0.898438 3.578125 -0.796875 C 3.578125 -0.785156 3.578125 -0.78125 3.578125 -0.78125 C 3.566406 -0.769531 3.5625 -0.757812 3.5625 -0.75 C 3.5625 -0.738281 3.566406 -0.726562 3.578125 -0.71875 C 3.578125 -0.71875 3.582031 -0.71875 3.59375 -0.71875 C 3.59375 -0.71875 3.597656 -0.71875 3.609375 -0.71875 C 3.722656 -0.75 3.832031 -0.785156 3.9375 -0.828125 C 4.125 -0.878906 4.3125 -0.9375 4.5 -1 C 5.15625 -1.207031 5.820312 -1.382812 6.5 -1.53125 C 6.570312 -1.550781 6.644531 -1.585938 6.71875 -1.640625 C 6.90625 -1.773438 7.085938 -1.910156 7.265625 -2.046875 C 7.453125 -2.191406 7.632812 -2.34375 7.8125 -2.5 C 8 -2.664062 8.164062 -2.847656 8.3125 -3.046875 C 8.40625 -3.171875 8.472656 -3.300781 8.515625 -3.4375 C 8.578125 -3.65625 8.535156 -3.847656 8.390625 -4.015625 C 8.335938 -4.078125 8.28125 -4.128906 8.21875 -4.171875 C 8.15625 -4.210938 8.085938 -4.253906 8.015625 -4.296875 C 7.765625 -4.398438 7.503906 -4.46875 7.234375 -4.5 C 6.992188 -4.53125 6.753906 -4.546875 6.515625 -4.546875 C 6.304688 -4.546875 6.09375 -4.535156 5.875 -4.515625 C 5.320312 -4.472656 4.773438 -4.390625 4.234375 -4.265625 C 3.859375 -4.179688 3.492188 -4.078125 3.140625 -3.953125 C 2.785156 -3.835938 2.441406 -3.691406 2.109375 -3.515625 C 1.984375 -3.453125 1.863281 -3.378906 1.75 -3.296875 C 1.632812 -3.222656 1.523438 -3.140625 1.421875 -3.046875 C 1.335938 -2.972656 1.265625 -2.894531 1.203125 -2.8125 C 1.148438 -2.757812 1.113281 -2.695312 1.09375 -2.625 C 1.050781 -2.507812 1.070312 -2.414062 1.15625 -2.34375 C 1.207031 -2.289062 1.269531 -2.25 1.34375 -2.21875 C 1.457031 -2.175781 1.578125 -2.148438 1.703125 -2.140625 C 1.773438 -2.128906 1.84375 -2.125 1.90625 -2.125 C 2 -2.125 2.09375 -2.117188 2.1875 -2.109375 C 2.257812 -2.109375 2.332031 -2.101562 2.40625 -2.09375 C 2.414062 -2.09375 2.421875 -2.085938 2.421875 -2.078125 C 2.429688 -2.078125 2.4375 -2.070312 2.4375 -2.0625 C 2.445312 -2.039062 2.441406 -2.023438 2.421875 -2.015625 C 2.410156 -2.015625 2.398438 -2.015625 2.390625 -2.015625 L 2.375 -2.015625 C 2.363281 -2.015625 2.359375 -2.015625 2.359375 -2.015625 C 2.285156 -2.015625 2.21875 -2.015625 2.15625 -2.015625 C 2.132812 -2.015625 2.113281 -2.015625 2.09375 -2.015625 C 2.0625 -2.015625 2.03125 -2.015625 2 -2.015625 C 1.90625 -2.015625 1.8125 -2.015625 1.71875 -2.015625 C 1.625 -2.023438 1.53125 -2.039062 1.4375 -2.0625 C 1.332031 -2.082031 1.234375 -2.113281 1.140625 -2.15625 C 1.085938 -2.1875 1.035156 -2.21875 0.984375 -2.25 C 0.847656 -2.363281 0.816406 -2.507812 0.890625 -2.6875 C 0.929688 -2.800781 1 -2.898438 1.09375 -2.984375 C 1.207031 -3.097656 1.335938 -3.207031 1.484375 -3.3125 C 1.859375 -3.570312 2.257812 -3.78125 2.6875 -3.9375 C 3.039062 -4.070312 3.394531 -4.179688 3.75 -4.265625 C 4.101562 -4.359375 4.460938 -4.4375 4.828125 -4.5 C 5.390625 -4.601562 5.957031 -4.65625 6.53125 -4.65625 C 6.550781 -4.65625 6.566406 -4.65625 6.578125 -4.65625 C 6.796875 -4.65625 7.007812 -4.644531 7.21875 -4.625 C 7.4375 -4.601562 7.648438 -4.5625 7.859375 -4.5 C 8.035156 -4.445312 8.203125 -4.378906 8.359375 -4.296875 C 8.429688 -4.242188 8.5 -4.1875 8.5625 -4.125 C 8.78125 -3.90625 8.832031 -3.644531 8.71875 -3.34375 C 8.664062 -3.21875 8.597656 -3.097656 8.515625 -2.984375 C 8.347656 -2.773438 8.164062 -2.582031 7.96875 -2.40625 C 7.726562 -2.1875 7.476562 -1.976562 7.21875 -1.78125 C 7.21875 -1.78125 7.207031 -1.773438 7.1875 -1.765625 C 7.175781 -1.753906 7.164062 -1.742188 7.15625 -1.734375 C 7.144531 -1.722656 7.132812 -1.707031 7.125 -1.6875 C 7.132812 -1.6875 7.144531 -1.6875 7.15625 -1.6875 C 7.164062 -1.6875 7.175781 -1.6875 7.1875 -1.6875 C 7.195312 -1.695312 7.207031 -1.703125 7.21875 -1.703125 C 7.894531 -1.835938 8.570312 -1.953125 9.25 -2.046875 C 9.582031 -2.078125 9.910156 -2.113281 10.234375 -2.15625 C 10.347656 -2.164062 10.460938 -2.175781 10.578125 -2.1875 C 10.609375 -2.1875 10.644531 -2.1875 10.6875 -2.1875 C 10.726562 -2.195312 10.769531 -2.195312 10.8125 -2.1875 C 10.8125 -2.1875 10.8125 -2.179688 10.8125 -2.171875 C 10.820312 -2.160156 10.828125 -2.15625 10.828125 -2.15625 C 10.828125 -2.144531 10.820312 -2.132812 10.8125 -2.125 C 10.8125 -2.113281 10.804688 -2.109375 10.796875 -2.109375 Z M 2.984375 0.40625 C 2.984375 0.40625 2.988281 0.40625 3 0.40625 C 3.007812 0.394531 3.019531 0.382812 3.03125 0.375 C 3.050781 0.363281 3.0625 0.347656 3.0625 0.328125 C 3.007812 0.328125 2.976562 0.316406 2.96875 0.296875 C 2.957031 0.285156 2.957031 0.265625 2.96875 0.234375 C 2.976562 0.203125 2.988281 0.175781 3 0.15625 C 3 0.144531 3 0.140625 3 0.140625 C 3.019531 0.0859375 3.039062 0.0390625 3.0625 0 C 3.09375 -0.09375 3.128906 -0.191406 3.171875 -0.296875 C 3.171875 -0.304688 3.175781 -0.3125 3.1875 -0.3125 C 3.1875 -0.332031 3.1875 -0.347656 3.1875 -0.359375 C 3.195312 -0.378906 3.195312 -0.394531 3.1875 -0.40625 C 3.1875 -0.40625 3.179688 -0.40625 3.171875 -0.40625 C 3.160156 -0.40625 3.148438 -0.398438 3.140625 -0.390625 C 3.140625 -0.390625 3.132812 -0.390625 3.125 -0.390625 C 2.832031 -0.285156 2.546875 -0.171875 2.265625 -0.046875 C 1.984375 0.0664062 1.703125 0.191406 1.421875 0.328125 C 1.203125 0.429688 0.984375 0.550781 0.765625 0.6875 C 0.648438 0.757812 0.539062 0.847656 0.4375 0.953125 C 0.382812 0.992188 0.34375 1.050781 0.3125 1.125 C 0.300781 1.144531 0.300781 1.164062 0.3125 1.1875 C 0.320312 1.207031 0.34375 1.222656 0.375 1.234375 C 0.394531 1.242188 0.425781 1.25 0.46875 1.25 C 0.5 1.25 0.53125 1.242188 0.5625 1.234375 C 0.78125 1.203125 1 1.148438 1.21875 1.078125 C 1.695312 0.921875 2.164062 0.75 2.625 0.5625 C 2.75 0.507812 2.867188 0.457031 2.984375 0.40625 Z M 6.171875 -1.28125 C 6.171875 -1.28125 6.175781 -1.28125 6.1875 -1.28125 C 6.195312 -1.289062 6.203125 -1.296875 6.203125 -1.296875 C 6.203125 -1.304688 6.203125 -1.316406 6.203125 -1.328125 C 6.191406 -1.328125 6.175781 -1.328125 6.15625 -1.328125 C 6.082031 -1.304688 6.007812 -1.285156 5.9375 -1.265625 C 5.726562 -1.210938 5.519531 -1.15625 5.3125 -1.09375 C 4.738281 -0.9375 4.171875 -0.757812 3.609375 -0.5625 C 3.554688 -0.550781 3.515625 -0.53125 3.484375 -0.5 C 3.453125 -0.46875 3.425781 -0.425781 3.40625 -0.375 C 3.394531 -0.351562 3.382812 -0.332031 3.375 -0.3125 C 3.375 -0.289062 3.367188 -0.273438 3.359375 -0.265625 C 3.347656 -0.234375 3.328125 -0.1875 3.296875 -0.125 C 3.265625 -0.0625 3.226562 0 3.1875 0.0625 C 3.15625 0.132812 3.132812 0.195312 3.125 0.25 C 3.113281 0.300781 3.117188 0.328125 3.140625 0.328125 C 3.171875 0.328125 3.203125 0.316406 3.234375 0.296875 C 3.242188 0.285156 3.257812 0.28125 3.28125 0.28125 C 3.894531 0 4.5 -0.304688 5.09375 -0.640625 C 5.332031 -0.773438 5.566406 -0.910156 5.796875 -1.046875 C 5.898438 -1.109375 6.003906 -1.171875 6.109375 -1.234375 C 6.128906 -1.242188 6.148438 -1.257812 6.171875 -1.28125 Z M 6.171875 -1.28125 "/></g></g></g><g fill="rgb(100%, 100%, 100%)" fill-opacity="1"><g transform="translate(32.482179, 53.960001)"><g><path d="M 0.890625 -0.59375 C 0.828125 -0.539062 0.753906 -0.492188 0.671875 -0.453125 C 0.597656 -0.410156 0.53125 -0.378906 0.46875 -0.359375 C 0.414062 -0.347656 0.363281 -0.34375 0.3125 -0.34375 C 0.21875 -0.34375 0.132812 -0.351562 0.0625 -0.375 C -0.0625 -0.425781 -0.109375 -0.523438 -0.078125 -0.671875 C -0.0351562 -0.796875 0.0351562 -0.890625 0.140625 -0.953125 C 0.253906 -1.023438 0.375 -1.0625 0.5 -1.0625 C 0.53125 -1.0625 0.554688 -1.0625 0.578125 -1.0625 C 0.628906 -1.039062 0.660156 -1.007812 0.671875 -0.96875 C 0.679688 -0.9375 0.671875 -0.898438 0.640625 -0.859375 C 0.578125 -0.753906 0.488281 -0.695312 0.375 -0.6875 C 0.300781 -0.675781 0.226562 -0.675781 0.15625 -0.6875 C 0.144531 -0.695312 0.132812 -0.695312 0.125 -0.6875 C 0.113281 -0.675781 0.101562 -0.664062 0.09375 -0.65625 C 0.0703125 -0.5625 0.101562 -0.503906 0.1875 -0.484375 C 0.28125 -0.441406 0.375 -0.441406 0.46875 -0.484375 C 0.59375 -0.515625 0.707031 -0.578125 0.8125 -0.671875 C 0.914062 -0.773438 0.972656 -0.820312 0.984375 -0.8125 C 1.003906 -0.8125 1.007812 -0.796875 1 -0.765625 C 0.988281 -0.710938 0.953125 -0.65625 0.890625 -0.59375 Z M 0.21875 -0.859375 C 0.21875 -0.847656 0.210938 -0.835938 0.203125 -0.828125 C 0.203125 -0.816406 0.207031 -0.804688 0.21875 -0.796875 C 0.257812 -0.773438 0.300781 -0.769531 0.34375 -0.78125 C 0.382812 -0.789062 0.421875 -0.804688 0.453125 -0.828125 C 0.484375 -0.859375 0.492188 -0.890625 0.484375 -0.921875 C 0.484375 -0.941406 0.476562 -0.953125 0.46875 -0.953125 C 0.457031 -0.953125 0.445312 -0.953125 0.4375 -0.953125 C 0.351562 -0.941406 0.28125 -0.910156 0.21875 -0.859375 Z M 0.21875 -0.859375 "/></g></g></g><g fill="rgb(100%, 100%, 100%)" fill-opacity="1"><g transform="translate(33.771995, 53.960001)"><g><path d="M 1 -1.3125 C 0.988281 -1.289062 0.976562 -1.269531 0.96875 -1.25 C 0.789062 -0.976562 0.597656 -0.722656 0.390625 -0.484375 C 0.359375 -0.453125 0.328125 -0.421875 0.296875 -0.390625 C 0.253906 -0.367188 0.21875 -0.351562 0.1875 -0.34375 C 0.0820312 -0.320312 0.0195312 -0.363281 0 -0.46875 C 0 -0.53125 0 -0.59375 0 -0.65625 C 0 -0.675781 0 -0.703125 0 -0.734375 C 0 -0.734375 0.00390625 -0.734375 0.015625 -0.734375 C 0.015625 -0.753906 0.015625 -0.773438 0.015625 -0.796875 C 0.015625 -0.835938 0.015625 -0.878906 0.015625 -0.921875 C 0.015625 -0.953125 0.015625 -0.976562 0.015625 -1 C 0.0234375 -1.0625 0.0507812 -1.09375 0.09375 -1.09375 C 0.144531 -1.09375 0.175781 -1.054688 0.1875 -0.984375 C 0.1875 -0.960938 0.179688 -0.945312 0.171875 -0.9375 C 0.171875 -0.914062 0.171875 -0.898438 0.171875 -0.890625 C 0.171875 -0.785156 0.171875 -0.679688 0.171875 -0.578125 C 0.171875 -0.554688 0.179688 -0.546875 0.203125 -0.546875 C 0.210938 -0.546875 0.222656 -0.550781 0.234375 -0.5625 C 0.296875 -0.632812 0.351562 -0.703125 0.40625 -0.765625 C 0.425781 -0.796875 0.445312 -0.828125 0.46875 -0.859375 C 0.5 -0.890625 0.523438 -0.921875 0.546875 -0.953125 C 0.648438 -1.078125 0.75 -1.195312 0.84375 -1.3125 C 0.851562 -1.332031 0.863281 -1.347656 0.875 -1.359375 C 0.894531 -1.367188 0.921875 -1.375 0.953125 -1.375 C 0.960938 -1.375 0.976562 -1.367188 1 -1.359375 C 1 -1.347656 1 -1.335938 1 -1.328125 C 1 -1.328125 1 -1.320312 1 -1.3125 Z M 1 -1.3125 "/></g></g></g><g fill="rgb(100%, 100%, 100%)" fill-opacity="1"><g transform="translate(34.983717, 53.960001)"><g><path d="M 0.890625 -0.59375 C 0.828125 -0.539062 0.753906 -0.492188 0.671875 -0.453125 C 0.597656 -0.410156 0.53125 -0.378906 0.46875 -0.359375 C 0.414062 -0.347656 0.363281 -0.34375 0.3125 -0.34375 C 0.21875 -0.34375 0.132812 -0.351562 0.0625 -0.375 C -0.0625 -0.425781 -0.109375 -0.523438 -0.078125 -0.671875 C -0.0351562 -0.796875 0.0351562 -0.890625 0.140625 -0.953125 C 0.253906 -1.023438 0.375 -1.0625 0.5 -1.0625 C 0.53125 -1.0625 0.554688 -1.0625 0.578125 -1.0625 C 0.628906 -1.039062 0.660156 -1.007812 0.671875 -0.96875 C 0.679688 -0.9375 0.671875 -0.898438 0.640625 -0.859375 C 0.578125 -0.753906 0.488281 -0.695312 0.375 -0.6875 C 0.300781 -0.675781 0.226562 -0.675781 0.15625 -0.6875 C 0.144531 -0.695312 0.132812 -0.695312 0.125 -0.6875 C 0.113281 -0.675781 0.101562 -0.664062 0.09375 -0.65625 C 0.0703125 -0.5625 0.101562 -0.503906 0.1875 -0.484375 C 0.28125 -0.441406 0.375 -0.441406 0.46875 -0.484375 C 0.59375 -0.515625 0.707031 -0.578125 0.8125 -0.671875 C 0.914062 -0.773438 0.972656 -0.820312 0.984375 -0.8125 C 1.003906 -0.8125 1.007812 -0.796875 1 -0.765625 C 0.988281 -0.710938 0.953125 -0.65625 0.890625 -0.59375 Z M 0.21875 -0.859375 C 0.21875 -0.847656 0.210938 -0.835938 0.203125 -0.828125 C 0.203125 -0.816406 0.207031 -0.804688 0.21875 -0.796875 C 0.257812 -0.773438 0.300781 -0.769531 0.34375 -0.78125 C 0.382812 -0.789062 0.421875 -0.804688 0.453125 -0.828125 C 0.484375 -0.859375 0.492188 -0.890625 0.484375 -0.921875 C 0.484375 -0.941406 0.476562 -0.953125 0.46875 -0.953125 C 0.457031 -0.953125 0.445312 -0.953125 0.4375 -0.953125 C 0.351562 -0.941406 0.28125 -0.910156 0.21875 -0.859375 Z M 0.21875 -0.859375 "/></g></g></g><g fill="rgb(100%, 100%, 100%)" fill-opacity="1"><g transform="translate(36.273534, 53.960001)"><g><path d="M 0.75 -0.75 C 0.789062 -0.78125 0.820312 -0.796875 0.84375 -0.796875 C 0.863281 -0.804688 0.875 -0.804688 0.875 -0.796875 C 0.882812 -0.785156 0.882812 -0.769531 0.875 -0.75 C 0.78125 -0.632812 0.675781 -0.535156 0.5625 -0.453125 C 0.445312 -0.378906 0.328125 -0.332031 0.203125 -0.3125 C 0.0859375 -0.300781 0.0195312 -0.367188 0 -0.515625 C -0.0195312 -0.660156 0.0625 -0.953125 0.25 -1.390625 C 0.445312 -1.828125 0.601562 -2.1875 0.71875 -2.46875 C 0.71875 -2.488281 0.726562 -2.507812 0.75 -2.53125 C 0.78125 -2.5625 0.8125 -2.566406 0.84375 -2.546875 C 0.851562 -2.546875 0.863281 -2.539062 0.875 -2.53125 C 0.882812 -2.519531 0.890625 -2.5 0.890625 -2.46875 C 0.398438 -1.300781 0.160156 -0.664062 0.171875 -0.5625 C 0.191406 -0.457031 0.257812 -0.429688 0.375 -0.484375 C 0.488281 -0.535156 0.578125 -0.585938 0.640625 -0.640625 C 0.703125 -0.691406 0.738281 -0.726562 0.75 -0.75 Z M 0.75 -0.75 "/></g></g></g><g fill="rgb(100%, 100%, 100%)" fill-opacity="1"><g transform="translate(37.433712, 53.960001)"><g><path d="M 0.25 -0.375 C 0.09375 -0.375 -0.00390625 -0.40625 -0.046875 -0.46875 C -0.0976562 -0.53125 -0.0976562 -0.617188 -0.046875 -0.734375 C -0.00390625 -0.816406 0.0507812 -0.890625 0.125 -0.953125 C 0.144531 -0.972656 0.164062 -0.988281 0.1875 -1 C 0.207031 -1.007812 0.234375 -1.015625 0.265625 -1.015625 C 0.285156 -1.015625 0.304688 -1.007812 0.328125 -1 C 0.335938 -1 0.347656 -1 0.359375 -1 C 0.367188 -1 0.382812 -1.003906 0.40625 -1.015625 C 0.40625 -1.015625 0.410156 -1.019531 0.421875 -1.03125 C 0.453125 -1.039062 0.488281 -1.046875 0.53125 -1.046875 C 0.539062 -1.046875 0.554688 -1.046875 0.578125 -1.046875 C 0.640625 -1.035156 0.6875 -1.007812 0.71875 -0.96875 C 0.75 -0.925781 0.757812 -0.875 0.75 -0.8125 C 0.75 -0.769531 0.738281 -0.734375 0.71875 -0.703125 C 0.59375 -0.492188 0.441406 -0.382812 0.265625 -0.375 Z M 0.5 -0.9375 C 0.414062 -0.9375 0.34375 -0.910156 0.28125 -0.859375 C 0.21875 -0.804688 0.171875 -0.75 0.140625 -0.6875 C 0.109375 -0.625 0.0976562 -0.566406 0.109375 -0.515625 C 0.117188 -0.472656 0.160156 -0.460938 0.234375 -0.484375 C 0.316406 -0.515625 0.390625 -0.5625 0.453125 -0.625 C 0.515625 -0.695312 0.550781 -0.765625 0.5625 -0.828125 C 0.582031 -0.890625 0.5625 -0.925781 0.5 -0.9375 Z M 0.5 -0.9375 "/></g></g></g><g fill="rgb(100%, 100%, 100%)" fill-opacity="1"><g transform="translate(38.643871, 53.960001)"><g><path d="M 1.25 -0.828125 C 1.21875 -0.816406 1.191406 -0.804688 1.171875 -0.796875 C 1.160156 -0.796875 1.15625 -0.796875 1.15625 -0.796875 C 1.132812 -0.785156 1.109375 -0.773438 1.078125 -0.765625 C 1.003906 -0.742188 0.929688 -0.71875 0.859375 -0.6875 C 0.804688 -0.675781 0.765625 -0.644531 0.734375 -0.59375 C 0.679688 -0.507812 0.613281 -0.441406 0.53125 -0.390625 C 0.457031 -0.347656 0.378906 -0.316406 0.296875 -0.296875 C 0.222656 -0.273438 0.15625 -0.257812 0.09375 -0.25 C 0.03125 -0.25 -0.00390625 -0.25 -0.015625 -0.25 C -0.0234375 -0.25 -0.03125 -0.25 -0.03125 -0.25 C -0.0507812 -0.238281 -0.0703125 -0.207031 -0.09375 -0.15625 C -0.125 -0.113281 -0.148438 -0.078125 -0.171875 -0.046875 C -0.171875 -0.0351562 -0.171875 -0.0234375 -0.171875 -0.015625 C -0.273438 0.191406 -0.378906 0.398438 -0.484375 0.609375 C -0.546875 0.722656 -0.601562 0.835938 -0.65625 0.953125 C -0.675781 0.992188 -0.695312 1.03125 -0.71875 1.0625 C -0.738281 1.09375 -0.769531 1.097656 -0.8125 1.078125 C -0.832031 1.066406 -0.835938 1.046875 -0.828125 1.015625 C -0.816406 0.984375 -0.800781 0.953125 -0.78125 0.921875 C -0.601562 0.492188 -0.414062 0.0703125 -0.21875 -0.34375 C -0.15625 -0.46875 -0.0976562 -0.597656 -0.046875 -0.734375 C -0.015625 -0.796875 0.0078125 -0.859375 0.03125 -0.921875 C 0.0390625 -0.921875 0.046875 -0.925781 0.046875 -0.9375 C 0.0546875 -0.96875 0.0703125 -1 0.09375 -1.03125 C 0.101562 -1.050781 0.117188 -1.0625 0.140625 -1.0625 C 0.160156 -1.0625 0.179688 -1.054688 0.203125 -1.046875 C 0.222656 -1.035156 0.234375 -1.015625 0.234375 -0.984375 C 0.234375 -0.972656 0.234375 -0.960938 0.234375 -0.953125 C 0.222656 -0.941406 0.21875 -0.925781 0.21875 -0.90625 C 0.21875 -0.894531 0.222656 -0.882812 0.234375 -0.875 C 0.242188 -0.875 0.253906 -0.875 0.265625 -0.875 C 0.285156 -0.882812 0.300781 -0.894531 0.3125 -0.90625 C 0.320312 -0.914062 0.332031 -0.925781 0.34375 -0.9375 C 0.351562 -0.9375 0.363281 -0.9375 0.375 -0.9375 C 0.425781 -0.96875 0.476562 -0.988281 0.53125 -1 C 0.59375 -1.019531 0.65625 -1.015625 0.71875 -0.984375 C 0.738281 -0.972656 0.753906 -0.953125 0.765625 -0.921875 C 0.785156 -0.898438 0.800781 -0.878906 0.8125 -0.859375 C 0.8125 -0.835938 0.828125 -0.820312 0.859375 -0.8125 C 0.890625 -0.8125 0.925781 -0.816406 0.96875 -0.828125 C 1.007812 -0.835938 1.046875 -0.847656 1.078125 -0.859375 C 1.097656 -0.867188 1.113281 -0.875 1.125 -0.875 C 1.15625 -0.882812 1.1875 -0.882812 1.21875 -0.875 C 1.226562 -0.875 1.238281 -0.875 1.25 -0.875 C 1.257812 -0.875 1.265625 -0.863281 1.265625 -0.84375 C 1.265625 -0.84375 1.257812 -0.835938 1.25 -0.828125 Z M 0.59375 -0.71875 C 0.613281 -0.726562 0.625 -0.75 0.625 -0.78125 C 0.632812 -0.8125 0.628906 -0.84375 0.609375 -0.875 C 0.609375 -0.882812 0.601562 -0.890625 0.59375 -0.890625 C 0.582031 -0.898438 0.570312 -0.90625 0.5625 -0.90625 C 0.550781 -0.894531 0.535156 -0.890625 0.515625 -0.890625 C 0.316406 -0.785156 0.160156 -0.644531 0.046875 -0.46875 C 0.0234375 -0.425781 0.0234375 -0.40625 0.046875 -0.40625 C 0.078125 -0.414062 0.117188 -0.4375 0.171875 -0.46875 C 0.234375 -0.5 0.296875 -0.535156 0.359375 -0.578125 C 0.421875 -0.617188 0.472656 -0.648438 0.515625 -0.671875 C 0.554688 -0.703125 0.582031 -0.71875 0.59375 -0.71875 Z M 0.59375 -0.71875 "/></g></g></g><g fill="rgb(100%, 100%, 100%)" fill-opacity="1"><g transform="translate(40.175779, 53.960001)"><g><path d="M 0.890625 -0.59375 C 0.828125 -0.539062 0.753906 -0.492188 0.671875 -0.453125 C 0.597656 -0.410156 0.53125 -0.378906 0.46875 -0.359375 C 0.414062 -0.347656 0.363281 -0.34375 0.3125 -0.34375 C 0.21875 -0.34375 0.132812 -0.351562 0.0625 -0.375 C -0.0625 -0.425781 -0.109375 -0.523438 -0.078125 -0.671875 C -0.0351562 -0.796875 0.0351562 -0.890625 0.140625 -0.953125 C 0.253906 -1.023438 0.375 -1.0625 0.5 -1.0625 C 0.53125 -1.0625 0.554688 -1.0625 0.578125 -1.0625 C 0.628906 -1.039062 0.660156 -1.007812 0.671875 -0.96875 C 0.679688 -0.9375 0.671875 -0.898438 0.640625 -0.859375 C 0.578125 -0.753906 0.488281 -0.695312 0.375 -0.6875 C 0.300781 -0.675781 0.226562 -0.675781 0.15625 -0.6875 C 0.144531 -0.695312 0.132812 -0.695312 0.125 -0.6875 C 0.113281 -0.675781 0.101562 -0.664062 0.09375 -0.65625 C 0.0703125 -0.5625 0.101562 -0.503906 0.1875 -0.484375 C 0.28125 -0.441406 0.375 -0.441406 0.46875 -0.484375 C 0.59375 -0.515625 0.707031 -0.578125 0.8125 -0.671875 C 0.914062 -0.773438 0.972656 -0.820312 0.984375 -0.8125 C 1.003906 -0.8125 1.007812 -0.796875 1 -0.765625 C 0.988281 -0.710938 0.953125 -0.65625 0.890625 -0.59375 Z M 0.21875 -0.859375 C 0.21875 -0.847656 0.210938 -0.835938 0.203125 -0.828125 C 0.203125 -0.816406 0.207031 -0.804688 0.21875 -0.796875 C 0.257812 -0.773438 0.300781 -0.769531 0.34375 -0.78125 C 0.382812 -0.789062 0.421875 -0.804688 0.453125 -0.828125 C 0.484375 -0.859375 0.492188 -0.890625 0.484375 -0.921875 C 0.484375 -0.941406 0.476562 -0.953125 0.46875 -0.953125 C 0.457031 -0.953125 0.445312 -0.953125 0.4375 -0.953125 C 0.351562 -0.941406 0.28125 -0.910156 0.21875 -0.859375 Z M 0.21875 -0.859375 "/></g></g></g><g fill="rgb(100%, 100%, 100%)" fill-opacity="1"><g transform="translate(41.465596, 53.960001)"><g><path d="M 0.75 -0.953125 C 0.738281 -0.890625 0.703125 -0.84375 0.640625 -0.8125 C 0.585938 -0.789062 0.570312 -0.820312 0.59375 -0.90625 C 0.613281 -0.988281 0.578125 -1.007812 0.484375 -0.96875 C 0.390625 -0.925781 0.316406 -0.875 0.265625 -0.8125 C 0.171875 -0.71875 0.0859375 -0.617188 0.015625 -0.515625 C 0.00390625 -0.503906 0 -0.492188 0 -0.484375 C -0.0195312 -0.460938 -0.0390625 -0.4375 -0.0625 -0.40625 C -0.0820312 -0.382812 -0.0976562 -0.367188 -0.109375 -0.359375 C -0.128906 -0.359375 -0.148438 -0.363281 -0.171875 -0.375 C -0.191406 -0.375 -0.203125 -0.378906 -0.203125 -0.390625 C -0.210938 -0.398438 -0.21875 -0.410156 -0.21875 -0.421875 C -0.207031 -0.453125 -0.191406 -0.484375 -0.171875 -0.515625 C -0.078125 -0.691406 0.015625 -0.863281 0.109375 -1.03125 C 0.117188 -1.039062 0.125 -1.046875 0.125 -1.046875 C 0.132812 -1.066406 0.148438 -1.09375 0.171875 -1.125 C 0.191406 -1.144531 0.210938 -1.148438 0.234375 -1.140625 C 0.265625 -1.140625 0.285156 -1.125 0.296875 -1.09375 C 0.304688 -1.0625 0.3125 -1.039062 0.3125 -1.03125 C 0.320312 -1.03125 0.34375 -1.035156 0.375 -1.046875 C 0.4375 -1.066406 0.5 -1.082031 0.5625 -1.09375 C 0.625 -1.101562 0.671875 -1.097656 0.703125 -1.078125 C 0.742188 -1.066406 0.757812 -1.023438 0.75 -0.953125 Z M 0.75 -0.953125 "/></g></g></g></svg>